# xmcd
#
# Track frame offsets:
#  150
#  5529
#  14599
#  24384
#  35727
#  43989
#  57029
#  64968
#  75979
#  88035
#  115205
#  129110
#  140012
#  151433
#  162831
#  168787
#  178653
#  181054
#  189552
#  196114
#  214992
#
# Disc length: 2904 seconds
#
# Revision: 0
# Processed by: cddbd v1.5.1PL0 Copyright (c) Steve Scherf et al.
# Submitted via: AltoMP3_Maker 3.0
#
DISCID=170b5615
DTITLE=Zen Frisbee - -35,000,000 B.C. Good Enough
DYEAR=1900
DGENRE=
TTITLE0=Masterpiece Theater
TTITLE1=Truckstop Girl
TTITLE2=Ockknows
TTITLE3=Spaghetti
TTITLE4=Chatham Co. Volunteers
TTITLE5=Tobor
TTITLE6=West Virginia
TTITLE7=Skeletor
TTITLE8=Alabama/Good Gippi Miss Ippi
TTITLE9=Chicago
TTITLE10=Wandering Jew
TTITLE11=Baxter Jones
TTITLE12=Big Train A'Coming
TTITLE13=Havyn And Gomez
TTITLE14=Man They Couldn't Hang
TTITLE15=Bad Monkey
TTITLE16=Shinbone
TTITLE17=Out On The Bayou
TTITLE18=Peace Ghost
TTITLE19=Headless Horseman
TTITLE20=Spoonman
EXTD=
EXTT0=
EXTT1=
EXTT2=
EXTT3=
EXTT4=
EXTT5=
EXTT6=
EXTT7=
EXTT8=
EXTT9=
EXTT10=
EXTT11=
EXTT12=
EXTT13=
EXTT14=
EXTT15=
EXTT16=
EXTT17=
EXTT18=
EXTT19=
EXTT20=
PLAYORDER=
